<?xml version="1.0" encoding="utf-8"?>
<!-- Generator: Adobe Illustrator 16.0.0, SVG Export Plug-In . SVG Version: 6.00 Build 0)  -->
<!DOCTYPE svg PUBLIC "-//W3C//DTD SVG 1.1//EN" "http://www.w3.org/Graphics/SVG/1.1/DTD/svg11.dtd">
<svg version="1.1" id="Layer_1" xmlns="http://www.w3.org/2000/svg" xmlns:xlink="http://www.w3.org/1999/xlink" x="0px" y="0px"
	 width="79.354px" height="79.353px" viewBox="0 0 79.354 79.353" enable-background="new 0 0 79.354 79.353" xml:space="preserve">
<path class="logo-svg" d="M70.178,40.311c0.349-0.031-0.081-0.272-0.081,0.003c0-1.543,0.178-3.294,1.068-4.607c0.555-0.816,2.461-2.176,3.367-1.102
	C76.647,37.11,72.485,40.242,70.178,40.311z M58.528,34.835c-0.973-1.152-3.004,0.293-3.61,1.184
	c-0.956,1.408-1.148,3.285-1.148,4.945c0-0.301,0.459-0.037,0.089-0.005C56.334,40.882,60.8,37.522,58.528,34.835z M66.928,47.031
	c-2.979,2.35-6.528,4.157-10.263,4.157c-3.195,0-5.393-1.469-6.695-3.625c-0.808,0.505-1.674,0.894-2.59,1.077
	c-2.988,0.611-4.809-1.542-5.191-4.287c-1.568,3.033-3.6,6.002-6.422,7.995c-2.656,1.879-6.569,2.978-9.519,1.083
	c-2.662-1.711-3.854-4.991-4.438-7.959c-0.691-3.489-0.648-6.902-0.385-10.43c-0.802,5.674-1.985,12.604-6.303,16.768
	c-2.135,2.061-5.297,3.115-8.254,2.947c-3.011-0.174-4.961-2.988-6.023-5.52C0.518,48.459,0.239,47.66,0,46.845v16.214
	c1.116-0.454,2.396-0.928,3.833-1.396c5.492-1.801,13.282-3.574,22.646-4.871c9.365-1.309,20.295-2.178,31.983-2.439
	c5.841-0.133,11.874-0.16,17.992-0.019c0.962,0.021,1.93,0.052,2.898,0.08v-6.437c-2.044,1.127-4.264,1.863-6.562,1.863
	C70.099,49.841,68.169,48.727,66.928,47.031z M58.788,62.605c-11.408,0.609-21.983,1.787-30.891,3.314
	c-8.908,1.512-16.135,3.424-20.84,5.135c-2.359,0.846-4.059,1.648-5.105,2.2c-0.543,0.274-0.896,0.494-1.121,0.64
	c-0.234,0.145-0.359,0.219-0.359,0.219C0.321,74.205,0.156,74.267,0,74.347v5.006h79.354V62.031
	c-0.984,0.001-1.966,0.003-2.943,0.012C70.399,62.087,64.489,62.3,58.788,62.605z M0,0v26.469c0.446-2.244,1.007-4.466,1.704-6.643
	c0.86-2.678,1.857-6.819,5.233-7.124c1.765-0.16,3.214,0.05,3.245,2.105c-0.002-0.121-0.002-0.225,0.002,0c0,0.026,0,0.032,0,0.051
	c0-0.016,0-0.03,0-0.046c0.02,1.286-0.389,2.597-0.696,3.832c-0.415,1.669-0.874,3.323-1.319,4.984
	c-0.928,3.459-1.832,6.928-2.439,10.461c-0.557,3.244-0.889,6.594-0.239,9.854c0.536,2.693,2.507,5.938,5.604,3.936
	c2.553-1.646,3.953-4.855,5.086-7.552c1.301-3.089,2.284-6.321,3.145-9.56c0.843-3.174,1.547-6.383,2.158-9.608
	c0.495-2.622,0.691-6.579,3.974-7.151c1.15-0.197,2.925-0.269,3.78,0.705c0.799,0.902,0.348,2.389,0.202,3.437
	c-0.442,3.201-0.891,6.397-1.25,9.606c-0.397,3.526-0.739,7.071-0.805,10.619c-0.058,2.971-0.132,6.328,0.921,9.154
	c1.318,3.531,4.648,1.971,6.333-0.38c1.908-2.659,2.863-5.958,3.659-9.092c1.693-6.645,2.491-13.548,2.951-20.379
	c0.125-1.783-0.16-4.174,1.287-5.502c1.358-1.245,4.855-1.528,5.619,0.52c0.373,0.999,0.236,2.225,0.201,3.273
	c-0.035,1.221-0.127,2.439-0.248,3.656c-0.249,2.544-0.603,5.078-1.015,7.6c-0.396,2.414-0.854,4.818-1.323,7.219
	c-0.357,1.81-1.076,3.873-1.045,5.729c0.035,2.175,1.547,3.771,3.798,3.477c0.038-0.006,0.076-0.018,0.114-0.021
	c-0.617-4.49,1.144-9.758,4.823-12.141c3.611-2.336,9.36-0.938,9.61,3.931c0.242,4.714-4.801,8.079-8.8,9.181
	c0.442,0.797,1.023,1.664,1.969,1.893c1.017,0.246,2.187,0,3.161-0.313c2.154-0.69,4.149-1.892,5.93-3.264
	c-0.607-4.154,0.986-9.055,4.332-11.334c3.337-2.273,8.822-1.078,9.1,3.509c0.265,4.42-4.449,7.574-8.197,8.612
	c0.412,0.743,0.951,1.549,1.831,1.762c0.937,0.229,2.005,0.005,2.904-0.273c1.433-0.45,2.787-1.159,4.053-1.985V0H0z"/>
</svg>