<?xml version="1.0" encoding="utf-8"?>
<!-- Generator: Adobe Illustrator 16.0.0, SVG Export Plug-In . SVG Version: 6.00 Build 0)  -->
<!DOCTYPE svg PUBLIC "-//W3C//DTD SVG 1.1//EN" "http://www.w3.org/Graphics/SVG/1.1/DTD/svg11.dtd">
<?xml-stylesheet type="text/css" href="../css/main.css" ?>
<svg version="1.1" id="Layer_1" xmlns="http://www.w3.org/2000/svg" xmlns:xlink="http://www.w3.org/1999/xlink" x="0px" y="0px"
     width="399.582px" height="151.635px" viewBox="0 0 399.582 151.635" enable-background="new 0 0 399.582 151.635"
     xml:space="preserve">
<path class="logo-svg" d="M38.683,12.908C38.666,11.848,38.704,14.111,38.683,12.908L38.683,12.908z M218.831,12.842c0-0.028-0.007,0.066-0.017,0.204
    C218.817,12.979,218.824,12.908,218.831,12.842z M260.22,20.794c0.009-0.129,0.016-0.216,0.016-0.192
    C260.23,20.666,260.222,20.727,260.22,20.794z M319.473,122.93c-6.027-0.598-12.183-1.209-18.442-1.825
    c-12.439-1.119-25.35-2.207-38.471-2.997c-13.119-0.859-26.456-1.455-39.784-1.865c-13.331-0.42-26.66-0.497-39.763-0.402
    c-13.104,0.104-25.979,0.563-38.413,1.225c-24.856,1.33-47.907,3.9-67.314,7.227c-19.406,3.294-35.159,7.457-45.414,11.192
    c-5.143,1.843-8.847,3.585-11.127,4.788c-1.183,0.604-1.947,1.077-2.443,1.396c-0.517,0.311-0.781,0.473-0.781,0.473
    c-5.573,3.465-13.004,2.133-16.208-3.908c-3.306-6.229,0.034-12.361,5.593-15.584c0.896-0.533,2.211-1.27,3.864-2.053
    c3.333-1.629,8.093-3.636,14.076-5.58c11.97-3.923,28.943-7.788,49.356-10.616c20.406-2.851,44.224-4.743,69.692-5.317
    c12.731-0.287,25.88-0.347,39.214-0.037c13.335,0.318,26.866,0.815,40.366,1.664c13.498,0.828,26.977,1.848,40.214,3.131
    c13.236,1.211,26.228,2.707,38.825,4.24c6.246,0.813,12.395,1.611,18.412,2.396c5.97,0.861,11.582,1.501,17.143,1.812
    c5.518,0.28,10.871,0.271,15.848-0.302c4.963-0.56,9.617-1.652,13.275-3.525c3.673-1.861,6.131-4.419,7.128-7.479
    c1.056-3.047,0.732-6.665-0.338-9.875c-0.519-1.61-1.241-3.132-2.05-4.471c-0.75-1.303-1.926-2.684-3.15-3.541
    c-0.218-0.154-0.934-0.527-0.934-0.527c-0.612-0.37-1.238-0.572-1.835-0.867c-1.215-0.459-2.376-0.785-3.48-0.916
    c-4.438-0.571-7.934,1.281-10.134,2.781c-0.131,0.086-0.239,0.164-0.356,0.244l-0.52,0.398c-0.279,0.213-0.593,0.45-0.928,0.701
    c-0.235,0.193-2.887,2.348-3.622,2.854c-5.168,3.524-11.782,6.506-14.709,0.311c-2.977-6.32-1.38-14.559-0.391-21.155
    c-0.205,0-0.464-0.052-0.662,0l-10.836,21.505c-1.2,2.458-3.781,3.733-6.438,2.536c-2.956-1.343-3.08-5.486-3.08-8.243
    c0-4.813,0.607-9.643,1.27-14.41c0.142-1.007,0.297-2.014,0.453-3.015c-0.296-0.232-0.598-0.462-0.894-0.688
    c-1.493-1.148-3.019-2.262-4.556-3.347c-0.627-0.442-3.027-2.689-3.432-1.634c5.473,10.947,1.723,28.248-10.979,32.408
    c-5.643,1.844-11.711-0.033-15.17-4.865c-0.591-0.832-1.106-1.729-1.557-2.658c-2.246,1.236-4.602,2.271-7.076,3.063
    c-1.355,0.438-2.729,0.825-4.113,1.175c-1.618,0.405-2.318,1.232-3.797,1.921c-7.362,3.444-19.11,1.294-24.051-3.169
    c-1.815-1.642-3.343-5.169-3.292-5.845c-2.036,0.992-4.151,1.834-6.354,2.512c-1.54,0.474-3.095,0.893-4.663,1.271
    c-1.334,0.317-2.451,1.49-3.684,2.17c-1.989,1.102-4.83,2.247-7.77,2.442c-6.943,0.456-12.758-2.611-18.818-5.883
    c-0.209-0.113-0.411-0.238-0.618-0.354c-5.072,3.23-10.741,5.443-16.632,5.443c-5.874,0-10.079-2.43-12.783-6.127
    c-6.493,5.121-14.231,9.058-22.37,9.058c-6.96,0-11.75-3.198-14.584-7.902c-1.761,1.101-3.645,1.946-5.644,2.354
    c-6.515,1.327-10.478-3.355-11.318-9.341c-3.415,6.604-7.841,13.071-13.989,17.422c-5.794,4.092-14.316,6.488-20.743,2.359
    c-5.804-3.731-8.4-10.881-9.676-17.342c-1.502-7.612-1.416-15.051-0.837-22.732c-1.75,12.367-4.324,27.466-13.733,36.539
    c-4.655,4.487-11.545,6.79-17.99,6.419c-6.559-0.381-10.813-6.512-13.128-12.021c-5.366-12.804-5.056-27.881-3.241-41.391
    c1.031-7.701,2.747-15.306,5.121-22.708c1.875-5.836,4.043-14.86,11.403-15.523c3.847-0.348,7.002,0.112,7.072,4.59
    c0.048,2.807-0.843,5.665-1.516,8.36c-0.902,3.635-1.904,7.239-2.875,10.859c-2.022,7.54-3.994,15.102-5.313,22.798
    c-1.213,7.069-1.936,14.365-0.525,21.469c1.166,5.875,5.463,12.938,12.216,8.584c5.557-3.595,8.61-10.589,11.081-16.458
    c2.838-6.737,4.976-13.781,6.856-20.84c1.835-6.913,3.37-13.903,4.698-20.931c1.08-5.723,1.511-14.337,8.661-15.585
    c2.508-0.439,6.376-0.581,8.241,1.532c1.737,1.965,0.759,5.205,0.442,7.492c-0.969,6.971-1.941,13.94-2.728,20.937
    c-0.861,7.681-1.61,15.41-1.752,23.141c-0.124,6.472-0.294,13.792,2.005,19.948c2.871,7.7,10.131,4.294,13.804-0.83
    c4.155-5.796,6.237-12.987,7.975-19.815c3.686-14.482,5.425-29.52,6.432-44.407c0.264-3.886-0.355-9.1,2.8-11.991
    c2.961-2.716,10.583-3.327,12.244,1.134c0.819,2.183,0.512,4.849,0.442,7.128c-0.081,2.661-0.279,5.317-0.539,7.967
    c-0.549,5.545-1.317,11.064-2.215,16.561c-0.864,5.264-1.861,10.502-2.889,15.738c-0.771,3.945-2.337,8.438-2.273,12.481
    c0.078,4.741,3.372,8.214,8.281,7.57c0.081-0.008,0.162-0.032,0.251-0.043c-1.349-9.789,2.487-21.265,10.502-26.454
    c7.867-5.092,20.397-2.047,20.946,8.564c0.529,10.27-10.456,17.599-19.173,20.007c0.958,1.732,2.227,3.62,4.286,4.117
    c2.218,0.543,4.766,0,6.893-0.681c4.69-1.495,9.035-4.116,12.929-7.109c-1.33-9.049,2.137-19.73,9.429-24.697
    c7.275-4.957,19.23-2.35,19.831,7.653c0.584,9.634-9.688,16.506-17.861,18.759c0.898,1.627,2.074,3.384,3.995,3.845
    c2.037,0.494,4.368,0.014,6.323-0.602c3.706-1.16,7.193-3.096,10.372-5.343c0.226-2.467,0.48-4.93,0.765-7.394
    c1.561-13.728,3.922-27.525,7.874-40.779c1.947-6.525,4.164-13.275,8.013-18.961c3.381-4.997,8.977-8.718,14.975-5.325
    c5.688,3.215,5.786,11.811,5.029,17.483c-0.939,7.075-4.578,13.748-8.381,19.671c-2.291,3.568-4.83,6.987-7.472,10.313
    c1.483-1.512,3.684-3.115,6.782-3.628c4.107-0.682,7.986,2.225,10,5.613c4.504,7.597,2.377,18.827-2.209,25.857
    c2.842-1.654,5.646-3.236,8.302-5.041c0.113-0.949,0.214-1.9,0.331-2.848c1.65-13.666,4.166-27.428,8.539-40.506
    c1.965-5.883,4.372-12.262,8.822-16.75c4.02-4.067,11.581-3.958,14.581,1.378c3,5.351,2.188,13.376,0.239,18.927
    c-2.33,6.626-6.076,12.666-10.236,18.286c-1.238,1.671-2.514,3.314-3.809,4.944c2.088-2.044,4.832-4.012,7.443-4.012
    c4.01,0,7.338,2.444,9.171,5.929c3.77,7.157,1.827,17.25-2.413,23.755c2.227-1.3,4.439-2.549,6.563-3.915
    c-0.332-3.141-0.139-6.35,0.473-9.281c1.268-6.101,4.754-11.662,10.294-14.697c5.695-3.115,12.824-3.212,18.817-0.913
    c3.883,1.495,7.26,3.806,10.291,6.541c0.277-1.551,0.656-3.11,1.438-4.357c2.201-3.495,7.665-3.244,8.318,1.183
    c0.671,4.556-1.556,9.1-1.556,13.62c0.252,0,0.582,0.07,0.827,0c1.328-2.434,2.609-4.892,3.931-7.325
    c1.369-2.516,2.525-5.515,4.468-7.652c1.777-1.955,5.671-3.232,7.964-1.46c2.125,1.637,2.358,4.862,1.941,7.296
    c-1.077,6.134-3.496,13.273-2.137,19.519c0.607,2.768,2.421,3.498,4.188,2.146c0.923-0.7,3.362-3.11,4.808-4.143
    c0.829-0.602,1.831-1.254,2.997-1.9c0.025-0.012,2.639-1.256,2.973-1.382c2.566-0.983,5.875-1.65,9.512-1.3
    c0.918,0.051,1.813,0.279,2.754,0.438c0.905,0.234,1.842,0.499,2.759,0.817c0.88,0.371,1.842,0.694,2.71,1.16
    c0.441,0.228,0.883,0.46,1.332,0.697l0.333,0.178l0.167,0.091l0.084,0.042l0.207,0.125c0.195,0.129,0.316,0.187,0.704,0.469
    c2.249,1.691,3.491,3.32,4.815,5.223c1.25,1.877,2.331,3.915,3.182,6.155c1.668,4.422,2.674,9.899,1.041,15.716
    c-0.796,2.87-2.311,5.676-4.335,8.002c-2.009,2.353-4.478,4.229-7.065,5.703c-5.221,2.953-10.92,4.447-16.685,5.386
    c-5.786,0.927-11.696,1.198-17.708,1.167C331.735,123.965,325.525,123.558,319.473,122.93z M133.857,69.897
    c5.393-0.168,15.125-7.489,10.182-13.343c-2.124-2.513-6.553,0.635-7.872,2.578c-2.084,3.065-2.499,7.157-2.499,10.772
    C133.669,69.251,134.665,69.823,133.857,69.897z M169.423,68.487c5.028-0.157,14.102-6.981,9.492-12.439
    c-1.979-2.342-6.125,0.622-7.338,2.404c-1.937,2.858-2.327,6.677-2.327,10.04C169.25,67.884,170.179,68.417,169.423,68.487z
     M203.827,48.154c5.869-11.315,13.983-21.955,14.987-35.108c-0.039,0.482-0.105,1.53,0.017-0.204c0-1.174-0.379-2.872-1.474-3.517
    c-1.556-0.931-2.85,0.973-3.532,2.1c-2.146,3.544-3.262,7.749-4.401,11.698C207.054,31.343,205.352,39.744,203.827,48.154z
     M209.267,51.859c0.047,0.032,0.195-0.187,0.448-0.554C209.564,51.489,209.417,51.676,209.267,51.859z M214.235,55.8
    c-6.31,0-9.523,6.425-10.408,11.814c-0.51,3.045-0.805,4.664-1.104,7.739c-0.072,0.699,0.119,2.614,1.266,3.716
    c0.852,0.816,2.81,1.586,4.291,1.818c3.16,0.492,5.676,0.063,7.691-2.612c1.997-2.653,2.975-6.041,3.602-9.255
    C220.604,63.728,221.759,55.8,214.235,55.8z M246.101,53.868c5.532-10.661,13.173-20.687,14.119-33.074
    c-0.037,0.453-0.099,1.442,0.016-0.192c0-1.13-0.396-2.929-1.58-3.411c-1.643-0.673-2.813,1.465-3.447,2.615
    c-1.884,3.408-2.927,7.292-3.986,11.011C249.067,38.392,247.507,46.124,246.101,53.868z M255.906,61.066
    c-5.938,0-8.704,6.112-9.806,11.133c-0.545,2.458-0.945,4.287-1.146,6.955c-0.102,1.323,0.068,2.708,1.296,3.979
    c1.021,1.055,2.647,1.352,4.045,1.566c2.683,0.42,4.949,0.225,6.82-1.936c2.013-2.313,3.02-5.484,3.649-8.424
    C261.849,69.311,263.354,61.066,255.906,61.066z M292.009,58.826c-5.225,0.758-7.525,8.982-8.137,13.243
    c-0.668,4.648-0.055,12.161,6.176,12.161c4.951,0,7.024-9.211,7.52-12.851C298.075,67.614,298.039,57.957,292.009,58.826z
     M100.998,137.289h1.349l-0.836,3.733c-0.22,1.031-0.638,3.586-0.732,4.688h-0.129c-0.117-1.225-0.391-3.238-0.731-4.84l-1.55-6.773
    h-5.106l-1.234,5.527c-0.487,2.328-1.153,5.405-1.202,6.086h-0.122c-0.102-0.734-0.519-3.656-0.792-4.84l-0.637-3.581h1.429v-3.192
    h-8.11v3.192h1.375l3.245,13.979h5.7l1.498-5.899c0.169-0.707,0.491-2.258,0.59-2.994h0.1c0.121,0.761,0.394,2.211,0.617,3.046
    l1.47,5.848h5.822l3.666-13.979h1.35v-3.192h-7.027V137.289z M108.396,137.335h1.546V148h-1.546v3.268h14.811v-5.558h-4.248V148
    h-3.933v-4.006h4.669v-3.269h-4.669v-3.39h3.933v2.187h4.248v-5.426h-14.811V137.335z M124.441,137.335h1.544V148h-1.544v3.268
    h14.813v-5.558h-4.253V148h-3.927v-4.006h4.67v-3.269h-4.67v-3.39h3.927v2.187h4.253v-5.426h-14.813V137.335z M164.172,137.289
    h1.353l-0.837,3.733c-0.22,1.031-0.641,3.586-0.738,4.688h-0.122c-0.125-1.225-0.392-3.238-0.739-4.84l-1.543-6.773h-5.115
    l-1.229,5.527c-0.492,2.328-1.156,5.405-1.206,6.086h-0.121c-0.1-0.734-0.519-3.656-0.785-4.84l-0.641-3.581h1.426v-3.192h-8.11
    v3.192h1.38l3.236,13.979h5.704l1.501-5.899c0.17-0.707,0.491-2.258,0.584-2.994h0.105c0.118,0.761,0.39,2.211,0.609,3.046
    l1.479,5.848h5.818l3.665-13.979h1.353v-3.192h-7.027V137.289z M171.566,137.335h1.549V148h-1.549v3.268h14.816v-5.558h-4.25V148
    H178.2v-4.006h4.668v-3.269H178.2v-3.39h3.933v2.187h4.25v-5.426h-14.816V137.335z M205.13,148.045h1.721v3.222h-9.858v-3.222h2.339
    l-0.517-1.671h-5.034l-0.518,1.671h1.919v3.222h-7.817v-3.222h1.668l3.317-10.783h-1.007v-3.166h9.433L205.13,148.045z
     M197.906,143.427l-1.62-5.304l-1.601,5.304H197.906z M223.437,146.278h1.645v1.354c0,2.04-0.86,3.931-3.586,3.931
    c-3.222,0-4.765-1.692-4.765-4.574c0-2.231-0.272-2.771-2.462-2.771v3.803h1.5v3.247h-7.932v-3.247h1.373v-10.713h-1.373v-3.211
    h7.98c5.701,0,6.808,2.258,6.808,5.058c0,1.918-1.523,3.269-3.565,3.563c1.699,0.246,3.222,1.721,3.222,3.486
    c0,1.059,0.15,1.673,0.586,1.673c0.371,0,0.569-0.294,0.569-0.786V146.278z M217.737,139.473c0-1.449-0.813-2.185-2.234-2.185
    h-1.234v4.177h1.107C216.8,141.465,217.737,140.775,217.737,139.473z M228.473,145.913c-1.796,0-2.777,1.545-2.777,2.797
    c0,1.303,1.153,2.655,2.777,2.655c1.844,0,2.825-1.182,2.825-2.655C231.298,147.458,230.265,145.913,228.473,145.913z
     M255.966,137.289h1.351l-0.833,3.733c-0.223,1.031-0.639,3.586-0.74,4.688h-0.119c-0.121-1.225-0.395-3.238-0.738-4.84
    l-1.547-6.773h-5.111L247,139.624c-0.493,2.328-1.156,5.405-1.202,6.086h-0.127c-0.094-0.734-0.516-3.656-0.784-4.84l-0.642-3.581
    h1.426v-3.192h-8.105v3.192h1.372l3.247,13.979h5.699l1.502-5.899c0.171-0.707,0.486-2.258,0.588-2.994h0.094
    c0.126,0.761,0.396,2.211,0.616,3.046l1.475,5.848h5.824l3.661-13.979h1.35v-3.192h-7.027V137.289z M263.363,137.335h1.55V148h-1.55
    v3.268h14.813v-5.558h-4.246V148h-3.932v-4.006h4.668v-3.269h-4.668v-3.39h3.932v2.187h4.246v-5.426h-14.813V137.335z
     M279.405,137.335h1.551V148h-1.551v3.268h14.819v-5.558h-4.251V148h-3.928v-4.006h4.663v-3.269h-4.663v-3.39h3.928v2.187h4.251
    v-5.426h-14.819V137.335z M308.08,138.71c0-0.858,0.981-1.302,1.699-1.302c1.72,0,3.146,1.033,3.146,2.848h4.445v-6.16h-4.226
    l-0.245,2.061c-0.981-1.842-3.072-2.505-5.141-2.505c-2.402,0-5.845,1.644-5.845,5.284c0,6.262,9.438,5.451,9.438,7.369
    c0,1.032-1.232,1.229-2.092,1.229c-1.031-0.054-3.094-0.395-3.094-2.457h-4.572v6.19h4.302l0.271-1.892
    c0.936,1.108,2.648,2.26,5.135,2.26c2.924,0,6.512-1.374,6.512-5.209C317.813,140.654,308.08,141.243,308.08,138.71z
     M318.795,140.478h3.613v-3.143h2.112V148h-2.012v3.268h9.133V148h-2.034v-10.664h2.062v3.143h3.611v-6.382h-16.485V140.478z
     M353.784,148.045h1.719v3.222h-9.851v-3.222h2.336l-0.519-1.671h-5.037l-0.52,1.671h1.918v3.222h-7.813v-3.222h1.672l3.318-10.783
    h-1.004v-3.166h9.432L353.784,148.045z M346.558,143.427l-1.618-5.304l-1.599,5.304H346.558z M367.911,137.262h1.676l0.02,5.848
    l-6.042-9.014h-7.052v3.166h1.421v10.832h-1.448v3.173h7.543v-3.173h-1.892v-6.185l6.267,9.357h5.285v-14.005h1.619v-3.166h-7.396
    V137.262z M393.365,142.444c0,5.602-3.392,8.823-9.434,8.823h-7.396V148h1.526v-10.664h-1.526v-3.239h7.493
    C389.974,134.096,393.365,137.751,393.365,142.444z M387.716,142.444c0-2.623-1.081-5.108-3.687-5.108h-0.931V148h0.931
    C386.635,147.952,387.716,145.521,387.716,142.444z M396.757,145.913c-1.795,0-2.775,1.545-2.775,2.797
    c0,1.303,1.158,2.655,2.775,2.655c1.843,0,2.825-1.182,2.825-2.655C399.582,147.458,398.551,145.913,396.757,145.913z"/>
</svg>